<?xml version="1.0" standalone="no"?>
<!DOCTYPE svg PUBLIC "-//W3C//DTD SVG 20010904//EN"
 "http://www.w3.org/TR/2001/REC-SVG-20010904/DTD/svg10.dtd">
<svg version="1.0" xmlns="http://www.w3.org/2000/svg"
 width="16.000000pt" height="16.000000pt" viewBox="0 0 16.000000 16.000000"
 preserveAspectRatio="xMidYMid meet">

<g transform="translate(0.000000,16.000000) scale(0.100000,-0.100000)"
fill="#ff4564" stroke="none">
<path d="M0 125 c0 -25 1 -25 80 -25 79 0 80 0 80 25 0 25 -1 25 -80 25 -79 0
-80 0 -80 -25z"/>
<path d="M120 70 c0 -10 -5 -22 -12 -26 -8 -5 -9 0 -6 14 4 12 2 22 -3 22 -5
0 -9 -7 -9 -15 0 -8 -5 -15 -11 -15 -6 0 -9 7 -5 15 3 9 0 15 -9 15 -9 0 -12
-6 -8 -17 4 -10 2 -14 -4 -10 -6 4 -13 2 -15 -4 -2 -7 -10 -4 -18 7 -14 16
-13 17 2 11 10 -3 18 -2 18 3 0 6 -9 10 -20 10 -17 0 -20 -7 -20 -40 l0 -40
81 0 80 0 -3 42 c-2 30 -8 42 -20 44 -12 1 -18 -4 -18 -16z m30 -9 c0 -6 -4
-13 -10 -16 -5 -3 -10 1 -10 9 0 9 5 16 10 16 6 0 10 -4 10 -9z"/>
</g>
</svg>
